<svg width="16" height="18" viewBox="0 0 16 18" fill="none" xmlns="http://www.w3.org/2000/svg">
<path d="M14.0342 14.2242C7.22873 17.4631 3.00515 14.7532 0.301499 13.1073C0.134199 13.0036 -0.150154 13.1315 0.096561 13.4149C0.997281 14.5071 3.94913 17.1395 7.80215 17.1395C11.6578 17.1395 13.9516 15.0356 14.2385 14.6686C14.5235 14.3047 14.3222 14.104 14.0342 14.2242H14.0342ZM15.9456 13.1687C15.7628 12.9307 14.8343 12.8863 14.2499 12.9581C13.6647 13.0278 12.7862 13.3855 12.8626 13.6003C12.9017 13.6807 12.9817 13.6446 13.3838 13.6085C13.7869 13.5683 14.9163 13.4257 15.1517 13.7334C15.3881 14.0431 14.7915 15.5188 14.6825 15.7567C14.5772 15.9947 14.7227 16.0561 14.9205 15.8976C15.1155 15.7392 15.4686 15.3288 15.7056 14.7482C15.9409 14.1643 16.0844 13.3499 15.9455 13.1687H15.9456Z" fill="#FF9900"/>
<path fill-rule="evenodd" clip-rule="evenodd" d="M9.45829 7.61535C9.45829 8.46518 9.47976 9.17389 9.05022 9.92859C8.70353 10.5422 8.15435 10.9196 7.54076 10.9196C6.70316 10.9196 6.21536 10.2814 6.21536 9.33958C6.21536 7.48032 7.88125 7.14287 9.45829 7.14287V7.61535ZM11.658 12.9322C11.5138 13.0611 11.3052 13.0703 11.1426 12.9844C10.4186 12.3831 10.2897 12.1039 9.89086 11.5301C8.69434 12.7512 7.84756 13.1163 6.29516 13.1163C4.46048 13.1163 3.03076 11.9842 3.03076 9.71692C3.03076 7.94672 3.99111 6.74095 5.35629 6.15194C6.54058 5.63031 8.19425 5.53829 9.45829 5.39414V5.11186C9.45829 4.59334 9.49812 3.97975 9.19443 3.53185C8.92748 3.12992 8.4182 2.96424 7.97024 2.96424C7.13884 2.96424 6.39637 3.39067 6.21536 4.27426C6.1785 4.47066 6.03435 4.66396 5.83801 4.67314L3.72105 4.44615C3.54314 4.40618 3.3468 4.26203 3.39589 3.98893C3.88369 1.42413 6.19997 0.65094 8.27392 0.65094C9.33548 0.65094 10.7222 0.933223 11.5598 1.73707C12.6213 2.728 12.5201 4.0503 12.5201 5.48921V8.88857C12.5201 9.91022 12.9435 10.3581 13.3423 10.9104C13.4834 11.1067 13.5141 11.343 13.3361 11.4902C12.8913 11.8614 12.0997 12.5518 11.6641 12.9384L11.658 12.9322" fill="black"/>
<path d="M14.0342 14.2242C7.22873 17.4631 3.00515 14.7532 0.301499 13.1073C0.134199 13.0036 -0.150154 13.1315 0.096561 13.4149C0.997281 14.5071 3.94913 17.1395 7.80215 17.1395C11.6578 17.1395 13.9516 15.0356 14.2385 14.6686C14.5235 14.3047 14.3222 14.104 14.0342 14.2242H14.0342ZM15.9456 13.1687C15.7628 12.9307 14.8343 12.8863 14.2499 12.9581C13.6647 13.0278 12.7862 13.3855 12.8626 13.6003C12.9017 13.6807 12.9817 13.6446 13.3838 13.6085C13.7869 13.5683 14.9163 13.4257 15.1517 13.7334C15.3881 14.0431 14.7915 15.5188 14.6825 15.7567C14.5772 15.9947 14.7227 16.0561 14.9205 15.8976C15.1155 15.7392 15.4686 15.3288 15.7056 14.7482C15.9409 14.1643 16.0844 13.3499 15.9455 13.1687H15.9456Z" fill="#FF9900"/>
<path fill-rule="evenodd" clip-rule="evenodd" d="M9.45829 7.61535C9.45829 8.46518 9.47976 9.17389 9.05022 9.92859C8.70353 10.5422 8.15435 10.9196 7.54076 10.9196C6.70316 10.9196 6.21536 10.2814 6.21536 9.33958C6.21536 7.48032 7.88125 7.14287 9.45829 7.14287V7.61535ZM11.658 12.9322C11.5138 13.0611 11.3052 13.0703 11.1426 12.9844C10.4186 12.3831 10.2897 12.1039 9.89086 11.5301C8.69434 12.7512 7.84756 13.1163 6.29516 13.1163C4.46048 13.1163 3.03076 11.9842 3.03076 9.71692C3.03076 7.94672 3.99111 6.74095 5.35629 6.15194C6.54058 5.63031 8.19425 5.53829 9.45829 5.39414V5.11186C9.45829 4.59334 9.49812 3.97975 9.19443 3.53185C8.92748 3.12992 8.4182 2.96424 7.97024 2.96424C7.13884 2.96424 6.39637 3.39067 6.21536 4.27426C6.1785 4.47066 6.03435 4.66396 5.83801 4.67314L3.72105 4.44615C3.54314 4.40618 3.3468 4.26203 3.39589 3.98893C3.88369 1.42413 6.19997 0.65094 8.27392 0.65094C9.33548 0.65094 10.7222 0.933223 11.5598 1.73707C12.6213 2.728 12.5201 4.0503 12.5201 5.48921V8.88857C12.5201 9.91022 12.9435 10.3581 13.3423 10.9104C13.4834 11.1067 13.5141 11.343 13.3361 11.4902C12.8913 11.8614 12.0997 12.5518 11.6641 12.9384L11.658 12.9322" fill="black"/>
</svg>
